<svg width="24" height="24" viewBox="0 0 24 24" fill="none" xmlns="http://www.w3.org/2000/svg">
<path fill-rule="evenodd" clip-rule="evenodd" d="M13.6913 14.062C12.7403 15.181 11.4093 15.864 9.94535 15.982C9.79435 15.995 9.64235 16 9.49335 16C6.65335 16 4.24835 13.781 4.01835 10.946C3.89935 9.482 4.35835 8.058 5.30935 6.939C6.26035 5.82 7.59035 5.137 9.05435 5.019C9.20635 5.006 9.35835 5 9.50735 5C12.3473 5 14.7523 7.22 14.9823 10.055C15.1013 11.519 14.6423 12.942 13.6913 14.062ZM19.6463 19.94L14.4353 14.729C15.5233 13.458 16.1253 11.773 15.9793 9.974C15.7023 6.575 12.8583 3.999 9.50735 4C9.33135 4 9.15235 4.007 8.97435 4.022C5.39635 4.313 2.73135 7.449 3.02135 11.027C3.29735 14.426 6.14135 17 9.49335 17C9.66935 17 9.84735 16.994 10.0263 16.979C11.4473 16.864 12.7193 16.294 13.7243 15.432L18.9393 20.647L19.6463 19.94Z" fill="#1C1819"/>
</svg>
