<svg width="154" height="25" viewBox="0 0 154 25" fill="none" xmlns="http://www.w3.org/2000/svg">
<g clip-path="url(#clip0)">
<path d="M21.3061 6.48931C17.775 6.48931 14.9123 9.35015 14.9123 12.8789C14.9123 16.4076 17.775 19.2684 21.3061 19.2684C24.8372 19.2684 27.6999 16.4076 27.6999 12.8789C27.7099 9.36012 24.8472 6.48931 21.3061 6.48931ZM21.3061 16.5471C19.2812 16.5471 17.6454 14.9124 17.6454 12.8888C17.6454 10.8653 19.2812 9.23053 21.3061 9.23053C23.331 9.23053 24.9668 10.8653 24.9668 12.8888C24.9668 14.9124 23.331 16.5471 21.3061 16.5471Z" fill="#1C1819"/>
<path d="M32.9067 0.388814H30.1736V18.9195H32.9067V0.388814Z" fill="#1C1819"/>
<path d="M41.9837 6.48931C38.4526 6.48931 35.5899 9.35015 35.5899 12.8789C35.5899 14.1448 35.959 15.331 36.5973 16.3278L36.6073 16.3378C37.0961 17.1053 37.7544 17.7533 38.5125 18.2417L38.5225 18.2517C39.5199 18.8896 40.7069 19.2584 41.9737 19.2584C43.9886 19.2584 45.7941 18.3214 46.9611 16.8561L45.0061 14.9024C44.3477 15.8793 43.2405 16.5172 41.9737 16.5172C41.465 16.5172 40.9763 16.4175 40.5374 16.2281L45.3452 11.4235L47.3401 9.46977L47.3701 9.43986C46.233 7.66554 44.238 6.48931 41.9837 6.48931ZM38.323 12.8888C38.323 10.8653 39.9588 9.23053 41.9837 9.23053C42.4924 9.23053 42.9812 9.34018 43.4201 9.51961L38.6222 14.3143C38.4227 13.8757 38.323 13.3972 38.323 12.8888Z" fill="#1C1819"/>
<path d="M58.3822 8.37328C57.6042 7.65557 56.1978 6.49927 53.8637 6.49927C51.5795 6.49927 49.405 7.75525 49.3651 10.2373C49.3351 12.0914 50.193 13.2576 53.1555 13.9355C54.7714 14.3043 56.0282 14.4538 56.0681 15.3709C56.098 16.1384 55.3599 16.6169 53.8737 16.5571C52.7665 16.5172 51.5396 15.9092 50.8014 14.9622L48.8663 16.886C49.5047 17.6237 51.1206 19.2884 53.8637 19.2884C56.7065 19.2884 58.7713 17.5738 58.8012 15.341C58.8112 14.394 58.5119 13.138 57.1953 12.3904C56.3374 11.902 55.4696 11.7425 53.8338 11.3836C52.5969 11.1145 52.0682 10.8155 52.0982 10.1675C52.1281 9.57942 52.7864 9.19066 53.9036 9.2405C54.7614 9.28037 55.7489 9.55948 56.4471 10.3071L58.3822 8.37328Z" fill="#1C1819"/>
<path d="M70.6312 8.2736C69.7534 7.21698 68.4468 6.52918 66.9705 6.48931C63.4394 6.48931 60.5767 9.35015 60.5767 12.8789C60.5767 16.4076 63.4394 19.2684 66.9705 19.2684C68.4368 19.2285 69.7534 18.5507 70.6312 17.4841V18.8996H73.3643V6.85813H70.6312V8.2736ZM66.9705 16.5471C64.9456 16.5471 63.3098 14.9124 63.3098 12.8888C63.3098 10.8653 64.9456 9.23053 66.9705 9.23053C68.9954 9.23053 70.6312 10.8653 70.6312 12.8888C70.6312 14.9124 68.9954 16.5471 66.9705 16.5471Z" fill="#1C1819"/>
<path d="M117.772 6.48931C114.241 6.48931 111.378 9.35015 111.378 12.8789C111.378 16.4076 114.241 19.2684 117.772 19.2684C121.303 19.2684 124.166 16.4076 124.166 12.8789C124.166 9.36012 121.303 6.48931 117.772 6.48931ZM117.772 16.5471C115.747 16.5471 114.111 14.9124 114.111 12.8888C114.111 10.8653 115.747 9.23053 117.772 9.23053C119.797 9.23053 121.433 10.8653 121.433 12.8888C121.433 14.9124 119.797 16.5471 117.772 16.5471Z" fill="#1C1819"/>
<path d="M135.038 6.86808V13.6663C135.008 15.2612 133.712 16.5471 132.106 16.5471C130.5 16.5471 129.193 15.2612 129.173 13.6663V6.86808H126.44V14.4339C126.44 17.1153 128.615 19.2784 131.288 19.2784C131.318 19.2784 131.348 19.2784 131.388 19.2784C131.408 19.2784 131.437 19.2784 131.457 19.2784C132.824 19.2285 134.041 18.6205 134.899 17.6635C134.949 17.6037 134.998 17.5539 135.048 17.4941V18.8996H137.781V6.86808H135.038Z" fill="#1C1819"/>
<path d="M109.154 6.48931C107.678 6.52918 106.371 7.21698 105.493 8.27359V6.86809H102.76V18.9096H105.493V12.8789C105.503 10.8653 107.139 9.2405 109.154 9.2405C109.403 9.2405 109.643 9.2704 109.872 9.31028V6.52918C109.643 6.50924 109.403 6.48931 109.154 6.48931Z" fill="#1C1819"/>
<path d="M147.178 6.48931C145.701 6.52918 144.395 7.21698 143.517 8.2736V6.86809H140.784V25.01H143.517V17.5041C144.395 18.5607 145.701 19.2485 147.178 19.2883C150.709 19.2883 153.572 16.4275 153.572 12.8988C153.572 9.36012 150.709 6.48931 147.178 6.48931ZM147.178 16.5471C145.153 16.5471 143.517 14.9124 143.517 12.8888C143.517 10.8653 145.153 9.23053 147.178 9.23053C149.203 9.23053 150.838 10.8653 150.838 12.8888C150.838 14.9124 149.203 16.5471 147.178 16.5471Z" fill="#1C1819"/>
<path d="M14.7028 18.9095L7.16188 8.28355L13.9746 0.388814H10.3738L2.73308 9.24049V0.388814H0V18.9095H2.73308V13.4171L5.23675 10.5164L11.1917 18.9095H14.7028Z" fill="#1C1819"/>
<path d="M99.7675 9.23053H94.7901L92.0571 11.9618H97.0345V14.4239C97.0045 14.4538 96.9646 14.4937 96.9347 14.5336C94.2316 17.2349 89.8626 17.2349 87.1595 14.5336C84.4563 11.8322 84.4563 7.46617 87.1595 4.76482C89.5933 2.3326 93.3937 2.09337 96.0968 4.05708L98.0519 2.09337C94.2615 -0.92697 88.7355 -0.687735 85.2244 2.82104C81.4539 6.58898 81.4539 12.6895 85.2244 16.4574C88.9948 20.2253 95.0994 20.2253 98.8698 16.4574C99.199 16.1285 99.4982 15.7796 99.7675 15.4207V9.23053Z" fill="#1C1819"/>
</g>
<defs>
<clipPath id="clip0">
<rect width="153.571" height="25" fill="white"/>
</clipPath>
</defs>
</svg>
